<svg width="150.517431640625px" height="107.01875px" xmlns="http://www.w3.org/2000/svg" viewBox="174.7412841796875 21.490625 150.517431640625 107.01875" style="background-image: none;" preserveAspectRatio="xMidYMid"><defs><filter id="editing-extrude-glow"><feFlood flood-color="#ffffff" result="flood-1"></feFlood><feMorphology operator="erode" radius="1" in="SourceAlpha" result="erode"></feMorphology><feComposite operator="in" in="flood-1" in2="erode" result="comp1"></feComposite><feConvolveMatrix order="3,3" divisor="1" in="comp1" result="convolve" kernelMatrix="0 0 0 1 1 1 0 0 0"></feConvolveMatrix><feOffset dx="-3" dy="0" in="convolve" result="extrude"></feOffset><feComposite operator="in" in="flood-1" in2="extrude" result="comp-extrude"></feComposite><feFlood flood-color="#fefefe" result="flood-2"></feFlood><feComposite operator="in" in="flood-2" in2="SourceAlpha" result="comp2"></feComposite><feMorphology operator="dilate" radius="1" in="comp2" result="dilate"></feMorphology><feOffset dx="-4.5" dy="0" in="dilate" result="offset"></feOffset><feGaussianBlur in="offset" stdDeviation="5.8" result="blur"></feGaussianBlur><feComponentTransfer in="blur" result="shadow"><feFuncA type="linear" slope="0.8" intercept="-0.2"></feFuncA></feComponentTransfer><feMerge><feMergeNode in="shadow"></feMergeNode><feMergeNode in="comp-extrude"></feMergeNode><feMergeNode in="SourceGraphic"></feMergeNode></feMerge></filter></defs><g filter="url(#editing-extrude-glow)"><g transform="translate(201.8400001525879, 96.2578125)"><path d="M27.26 0L5.25 0L5.25-41.92L27.07-41.92L27.07-38.78L8.77-38.78L8.77-22.91L25.34-22.91L25.34-19.78L8.77-19.78L8.77-3.14L27.26-3.14L27.26 0ZM45.82-15.42L35.84-30.40L40.26-30.40L48-17.86L55.68-30.40L59.97-30.40L50.37-15.42L60.54 0L56.19 0L48-12.99L39.87 0L35.52 0L45.82-15.42ZM77.95-2.75L77.95-2.75L77.95-2.75Q80.32-2.75 83.10-4.26L83.10-4.26L83.10-4.26Q85.89-5.76 87.17-7.04L87.17-7.04L87.17-14.66L87.17-14.66Q82.94-14.98 79.10-14.98L79.10-14.98L79.10-14.98Q75.26-14.98 73.34-13.34L73.34-13.34L73.34-13.34Q71.42-11.71 71.42-8.96L71.42-8.96L71.42-8.96Q71.42-2.75 77.95-2.75ZM77.89 0.58L77.89 0.58L77.89 0.58Q73.22 0.58 70.53-1.82L70.53-1.82L70.53-1.82Q67.84-4.22 67.84-8.64L67.84-8.64L67.84-8.64Q67.84-13.06 70.78-15.49L70.78-15.49L70.78-15.49Q73.73-17.98 78.59-17.98L78.59-17.98L78.59-17.98Q83.46-17.98 87.17-17.60L87.17-17.60L87.17-17.60Q87.17-23.30 85.76-25.38L85.76-25.38L85.76-25.38Q84.35-27.46 80.06-27.46L80.06-27.46L80.06-27.46Q75.78-27.46 69.95-25.41L69.95-25.41L68.99-28.61L68.99-28.61Q74.94-30.78 79.74-30.78L79.74-30.78L79.74-30.78Q86.08-30.78 88.32-27.97L88.32-27.97L88.32-27.97Q90.56-25.15 90.56-18.11L90.56-18.11L90.56-4.67L91.07 0.19L87.81 0.51L87.17-3.33L87.17-3.33Q85.70-2.05 83.01-0.74L83.01-0.74L83.01-0.74Q80.32 0.58 77.89 0.58Z" fill="#000000"></path></g></g><style>text {
  font-size: 64px;
  font-family: Arial Black;
  dominant-baseline: central;
  text-anchor: middle;
}</style></svg>