<svg width="150.517431640625px" height="107.01875px" xmlns="http://www.w3.org/2000/svg" viewBox="174.7412841796875 21.490625 150.517431640625 107.01875" style="background-image: none;" preserveAspectRatio="xMidYMid"><defs><filter id="editing-extrude-glow"><feFlood flood-color="#ffffff" result="flood-1"></feFlood><feMorphology operator="erode" radius="1" in="SourceAlpha" result="erode"></feMorphology><feComposite operator="in" in="flood-1" in2="erode" result="comp1"></feComposite><feConvolveMatrix order="3,3" divisor="1" in="comp1" result="convolve" kernelMatrix="0 0 0 1 1 1 0 0 0"></feConvolveMatrix><feOffset dx="-3" dy="0" in="convolve" result="extrude"></feOffset><feComposite operator="in" in="flood-1" in2="extrude" result="comp-extrude"></feComposite><feFlood flood-color="#fefefe" result="flood-2"></feFlood><feComposite operator="in" in="flood-2" in2="SourceAlpha" result="comp2"></feComposite><feMorphology operator="dilate" radius="1" in="comp2" result="dilate"></feMorphology><feOffset dx="-4.5" dy="0" in="dilate" result="offset"></feOffset><feGaussianBlur in="offset" stdDeviation="5.8" result="blur"></feGaussianBlur><feComponentTransfer in="blur" result="shadow"><feFuncA type="linear" slope="0.8" intercept="-0.2"></feFuncA></feComponentTransfer><feMerge><feMergeNode in="shadow"></feMergeNode><feMergeNode in="comp-extrude"></feMergeNode><feMergeNode in="SourceGraphic"></feMergeNode></feMerge></filter></defs><g filter="url(#editing-extrude-glow)"><g transform="translate(201.52000045776367, 96.2578125)"><path d="M27.26 0L5.25 0L5.25-41.92L27.07-41.92L27.07-38.78L8.77-38.78L8.77-22.91L25.34-22.91L25.34-19.78L8.77-19.78L8.77-3.14L27.26-3.14L27.26 0ZM45.82-15.42L35.84-30.40L40.26-30.40L48-17.86L55.68-30.40L59.97-30.40L50.37-15.42L60.54 0L56.19 0L48-12.99L39.87 0L35.52 0L45.82-15.42ZM68.29-15.17L68.29-15.17L68.29-15.17Q68.29-22.53 71.33-26.66L71.33-26.66L71.33-26.66Q74.37-30.78 80.19-30.78L80.19-30.78L80.19-30.78Q86.02-30.78 88.86-26.94L88.86-26.94L88.86-26.94Q91.71-23.10 91.71-16.70L91.71-16.70L91.52-13.50L71.94-13.50L71.94-13.50Q72.26-8.70 74.50-5.73L74.50-5.73L74.50-5.73Q76.74-2.75 80.67-2.75L80.67-2.75L80.67-2.75Q84.61-2.75 89.92-4.61L89.92-4.61L90.88-1.41L90.88-1.41Q85.70 0.58 81.15 0.58L81.15 0.58L81.15 0.58Q74.88 0.58 71.58-3.62L71.58-3.62L71.58-3.62Q68.29-7.81 68.29-15.17ZM80.45-27.52L80.45-27.52L80.45-27.52Q72.38-27.52 71.94-16.70L71.94-16.70L88.06-16.70L88.06-16.70Q88.06-27.52 80.45-27.52Z" fill="#000000"></path></g></g><style>text {
  font-size: 64px;
  font-family: Arial Black;
  dominant-baseline: central;
  text-anchor: middle;
}</style></svg>