<svg width="63.520068359374996px" height="107.01875px" xmlns="http://www.w3.org/2000/svg" viewBox="218.2399658203125 21.490625 63.520068359374996 107.01875" style="background-image: none;" preserveAspectRatio="xMidYMid"><defs><filter id="editing-extrude-glow"><feFlood flood-color="#ffffff" result="flood-1"></feFlood><feMorphology operator="erode" radius="1" in="SourceAlpha" result="erode"></feMorphology><feComposite operator="in" in="flood-1" in2="erode" result="comp1"></feComposite><feConvolveMatrix order="3,3" divisor="1" in="comp1" result="convolve" kernelMatrix="0 0 0 1 1 1 0 0 0"></feConvolveMatrix><feOffset dx="-3" dy="0" in="convolve" result="extrude"></feOffset><feComposite operator="in" in="flood-1" in2="extrude" result="comp-extrude"></feComposite><feFlood flood-color="#fefefe" result="flood-2"></feFlood><feComposite operator="in" in="flood-2" in2="SourceAlpha" result="comp2"></feComposite><feMorphology operator="dilate" radius="1" in="comp2" result="dilate"></feMorphology><feOffset dx="-4.5" dy="0" in="dilate" result="offset"></feOffset><feGaussianBlur in="offset" stdDeviation="5.8" result="blur"></feGaussianBlur><feComponentTransfer in="blur" result="shadow"><feFuncA type="linear" slope="0.8" intercept="-0.2"></feFuncA></feComponentTransfer><feMerge><feMergeNode in="shadow"></feMergeNode><feMergeNode in="comp-extrude"></feMergeNode><feMergeNode in="SourceGraphic"></feMergeNode></feMerge></filter></defs><g filter="url(#editing-extrude-glow)"><g transform="translate(233.99999952316284, 98.63810157775879)"><path d="M29.25 1.92L27.20 4.67L23.04-1.28L23.04-1.28Q20.22 0.64 16.19 0.64L16.19 0.64L16.19 0.64Q12.16 0.64 9.47-0.96L9.47-0.96L9.47-0.96Q6.78-2.56 5.31-5.63L5.31-5.63L5.31-5.63Q2.56-11.39 2.56-21.50L2.56-21.50L2.56-21.50Q2.56-37.25 9.34-41.09L9.34-41.09L9.34-41.09Q12.03-42.62 15.58-42.59L15.58-42.59L15.58-42.59Q19.14-42.56 21.50-41.54L21.50-41.54L21.50-41.54Q23.87-40.51 25.34-38.72L25.34-38.72L25.34-38.72Q26.88-36.86 27.78-34.18L27.78-34.18L27.78-34.18Q29.44-29.38 29.44-21.50L29.44-21.50L29.44-21.50Q29.44-8.96 25.47-3.71L25.47-3.71L29.25 1.92ZM6.85-29.60L6.85-29.60L6.85-29.60Q6.53-27.39 6.43-25.60L6.43-25.60L6.43-25.60Q6.34-23.81 6.34-20.64L6.34-20.64L6.34-20.64Q6.34-17.47 6.69-14.50L6.69-14.50L6.69-14.50Q7.04-11.52 8-8.58L8-8.58L8-8.58Q9.98-2.62 16-2.62L16-2.62L16-2.62Q18.82-2.62 20.74-4.03L20.74-4.03L17.15-7.55L18.75-10.88L23.04-6.53L23.04-6.53Q25.66-10.94 25.66-21.50L25.66-21.50L25.66-21.50Q25.73-29.82 24.19-33.41L24.19-33.41L24.19-33.41Q22.53-37.38 19.78-38.53L19.78-38.53L19.78-38.53Q18.11-39.30 16-39.30L16-39.30L16-39.30Q13.89-39.30 12.22-38.56L12.22-38.56L12.22-38.56Q10.56-37.82 9.54-36.42L9.54-36.42L9.54-36.42Q8.51-35.01 7.84-33.41L7.84-33.41L7.84-33.41Q7.17-31.81 6.85-29.60Z" fill="#ffa500"></path></g></g><style>text {
  font-size: 64px;
  font-family: Arial Black;
  dominant-baseline: central;
  text-anchor: middle;
}</style></svg>